[img]http://img205.imageshack.us/img205/4893/contraaaaaa.jpg[/img]
[code]
Contraband 2012 REPACK CAM XViD AC3-26K

Imdb: 
http://www.imdb.com/title/tt1524137/

Plot:
To protect his brother-in-law from a drug lord, a former smuggler heads to Panama to score millions of dollars in counterfeit bills.

Sources:
RUSSIAN VIDEO
THNXS M8 FOR AUDIO..

Notes:
REPACK FIXED OOS PARTS IN THE MOVIE WERE AROUND 3-6 PARTS...THIS LAST ENCODE I WILL DO OF THIS MOVIE :p UNTIL THE NEW SOURCE SO SIMPLE.. TAKE OR LEAVE IT...
=) ENJOY.

Greetz:
Xtreme Encode|FYA|ILLUMANTI|CM8|RX|VISION|HDSCENE|NIGHTMAREZ|xTriLL|DTRG|CRYS|REMIXHD|BIDA|RX|REFILL|INSPiRAL|SIC
To all the people who have helped me :P you know who you are

Anything to offer email us @: 26k@hushmail.me

Video
ID                                       : 0
Format                                   : MPEG-4 Visual
Format profile                           : Advanced Simple@L5
Format settings, BVOP                    : 2
Format settings, QPel                    : No
Format settings, GMC                     : No warppoints
Format settings, Matrix                  : Default (H.263)
Muxing mode                              : Packed bitstream
Codec ID                                 : XVID
Codec ID/Hint                            : XviD
Duration                                 : 1h 43mn
Bit rate                                 : 1 590 Kbps
Width                                    : 720 pixels
Height                                   : 304 pixels
Display aspect ratio                     : 2.35:1
Frame rate                               : 25.000 fps
Color space                              : YUV
Chroma subsampling                       : 4:2:0
Bit depth                                : 8 bits
Scan type                                : Progressive
Compression mode                         : Lossy
Bits/(Pixel*Frame)                       : 0.291
Stream size                              : 1.15 GiB (87%)
Writing library                          : XviD 64

Audio
ID                                       : 1
Format                                   : AC-3
Format/Info                              : Audio Coding 3
Mode extension                           : CM (complete main)
Codec ID                                 : 2000
Duration                                 : 1h 43mn
Bit rate mode                            : Constant
Bit rate                                 : 224 Kbps
Channel(s)                               : 2 channels
Channel positions                        : Front: L R
Sampling rate                            : 44.1 KHz
Bit depth                                : 16 bits
Compression mode                         : Lossy
Stream size                              : 166 MiB (12%)
Alignment                                : Split accross interleaves
Interleave, duration                     : 9361 ms (234.03 video frames)
[/code]
Screens:
[img]http://img534.imageshack.us/img534/2272/vlcsnap2012011615h51m29.png[/img]
[img]http://img20.imageshack.us/img20/1268/vlcsnap2012011615h51m35.png[/img]
[img]http://img440.imageshack.us/img440/6492/vlcsnap2012011615h51m55.png[/img]
[img]http://img51.imageshack.us/img51/2609/vlcsnap2012011615h52m00.png[/img]
[img]http://img14.imageshack.us/img14/2716/vlcsnap2012011615h52m03.png[/img]
[img]http://img828.imageshack.us/img828/6141/vlcsnap2012011615h52m15.png[/img]


[img]http://img851.imageshack.us/img851/5503/26ks.jpg[/img]
Thank you smallz for banner!